<svg xmlns="http://www.w3.org/2000/svg" width="900" height="220" viewBox="0 0 900 220" fill="none">
<defs>
  <linearGradient id="gradHeader" x1="0%" y1="0%" x2="100%" y2="0%">
    <stop offset="0%" stop-color="#7287fd"/>
    <stop offset="50%" stop-color="#a333d8"/>
    <stop offset="100%" stop-color="#00d4ff"/>
  </linearGradient>
  <linearGradient id="gradFooter" x1="0%" y1="0%" x2="100%" y2="0%">
    <stop offset="0%" stop-color="#00d4ff"/>
    <stop offset="50%" stop-color="#a333d8"/>
    <stop offset="100%" stop-color="#7287fd"/>
  </linearGradient>
  <linearGradient id="gradPurple" x1="0%" y1="0%" x2="100%" y2="100%">
    <stop offset="0%" stop-color="#a333d8" stop-opacity="0.8"/>
    <stop offset="100%" stop-color="#7287fd" stop-opacity="0.4"/>
  </linearGradient>
  <linearGradient id="gradCyan" x1="0%" y1="0%" x2="100%" y2="100%">
    <stop offset="0%" stop-color="#00d4ff" stop-opacity="0.8"/>
    <stop offset="100%" stop-color="#a333d8" stop-opacity="0.4"/>
  </linearGradient>
  <filter id="glow" x="-50%" y="-50%" width="200%" height="200%">
    <feGaussianBlur stdDeviation="3" result="coloredBlur"/>
    <feMerge>
      <feMergeNode in="coloredBlur"/>
      <feMergeNode in="SourceGraphic"/>
    </feMerge>
  </filter>
  <filter id="glowStrong" x="-50%" y="-50%" width="200%" height="200%">
    <feGaussianBlur stdDeviation="6" result="coloredBlur"/>
    <feMerge>
      <feMergeNode in="coloredBlur"/>
      <feMergeNode in="SourceGraphic"/>
    </feMerge>
  </filter>

</defs>
  <rect width="900" height="220" fill="#0d1117"/>
  <path id="wave0" d="M0,160 L0.0,160.0 L11.2,167.6 L22.5,174.3 L33.8,179.2 L45.0,181.7 L56.2,181.6 L67.5,178.8 L78.8,173.6 L90.0,166.8 L101.2,159.1 L112.5,151.6 L123.8,145.1 L135.0,140.4 L146.2,138.2 L157.5,138.6 L168.8,141.7 L180.0,147.1 L191.2,154.0 L202.5,161.7 L213.8,169.2 L225.0,175.6 L236.2,180.0 L247.5,181.9 L258.8,181.2 L270.0,177.8 L281.2,172.2 L292.5,165.1 L303.8,157.4 L315.0,150.0 L326.2,143.8 L337.5,139.7 L348.8,138.0 L360.0,139.1 L371.2,142.7 L382.5,148.5 L393.8,155.7 L405.0,163.4 L416.2,170.7 L427.5,176.7 L438.8,180.6 L450.0,182.0 L461.2,180.6 L472.5,176.7 L483.8,170.7 L495.0,163.4 L506.2,155.7 L517.5,148.5 L528.8,142.7 L540.0,139.1 L551.2,138.0 L562.5,139.7 L573.8,143.8 L585.0,150.0 L596.2,157.4 L607.5,165.1 L618.8,172.2 L630.0,177.8 L641.2,181.2 L652.5,181.9 L663.8,180.0 L675.0,175.6 L686.2,169.2 L697.5,161.7 L708.8,154.0 L720.0,147.1 L731.2,141.7 L742.5,138.6 L753.8,138.2 L765.0,140.4 L776.2,145.1 L787.5,151.6 L798.8,159.1 L810.0,166.8 L821.2,173.6 L832.5,178.8 L843.8,181.6 L855.0,181.7 L866.2,179.2 L877.5,174.3 L888.8,167.6 L900.0,160.0 L900,204 L0,204 Z" fill="#7287fd" opacity="0.15">
    <animate attributeName="d" dur="8s" repeatCount="indefinite"
      values="M0,160 L0.0,160.0 L11.2,167.6 L22.5,174.3 L33.8,179.2 L45.0,181.7 L56.2,181.6 L67.5,178.8 L78.8,173.6 L90.0,166.8 L101.2,159.1 L112.5,151.6 L123.8,145.1 L135.0,140.4 L146.2,138.2 L157.5,138.6 L168.8,141.7 L180.0,147.1 L191.2,154.0 L202.5,161.7 L213.8,169.2 L225.0,175.6 L236.2,180.0 L247.5,181.9 L258.8,181.2 L270.0,177.8 L281.2,172.2 L292.5,165.1 L303.8,157.4 L315.0,150.0 L326.2,143.8 L337.5,139.7 L348.8,138.0 L360.0,139.1 L371.2,142.7 L382.5,148.5 L393.8,155.7 L405.0,163.4 L416.2,170.7 L427.5,176.7 L438.8,180.6 L450.0,182.0 L461.2,180.6 L472.5,176.7 L483.8,170.7 L495.0,163.4 L506.2,155.7 L517.5,148.5 L528.8,142.7 L540.0,139.1 L551.2,138.0 L562.5,139.7 L573.8,143.8 L585.0,150.0 L596.2,157.4 L607.5,165.1 L618.8,172.2 L630.0,177.8 L641.2,181.2 L652.5,181.9 L663.8,180.0 L675.0,175.6 L686.2,169.2 L697.5,161.7 L708.8,154.0 L720.0,147.1 L731.2,141.7 L742.5,138.6 L753.8,138.2 L765.0,140.4 L776.2,145.1 L787.5,151.6 L798.8,159.1 L810.0,166.8 L821.2,173.6 L832.5,178.8 L843.8,181.6 L855.0,181.7 L866.2,179.2 L877.5,174.3 L888.8,167.6 L900.0,160.0 L900,204 L0,204 Z;M0,160 L0.0,160.0 L11.2,152.4 L22.5,145.7 L33.8,140.8 L45.0,138.3 L56.2,138.4 L67.5,141.2 L78.8,146.4 L90.0,153.2 L101.2,160.9 L112.5,168.4 L123.8,174.9 L135.0,179.6 L146.2,181.8 L157.5,181.4 L168.8,178.3 L180.0,172.9 L191.2,166.0 L202.5,158.3 L213.8,150.8 L225.0,144.4 L236.2,140.0 L247.5,138.1 L258.8,138.8 L270.0,142.2 L281.2,147.8 L292.5,154.9 L303.8,162.6 L315.0,170.0 L326.2,176.2 L337.5,180.3 L348.8,182.0 L360.0,180.9 L371.2,177.3 L382.5,171.5 L393.8,164.3 L405.0,156.6 L416.2,149.3 L427.5,143.3 L438.8,139.4 L450.0,138.0 L461.2,139.4 L472.5,143.3 L483.8,149.3 L495.0,156.6 L506.2,164.3 L517.5,171.5 L528.8,177.3 L540.0,180.9 L551.2,182.0 L562.5,180.3 L573.8,176.2 L585.0,170.0 L596.2,162.6 L607.5,154.9 L618.8,147.8 L630.0,142.2 L641.2,138.8 L652.5,138.1 L663.8,140.0 L675.0,144.4 L686.2,150.8 L697.5,158.3 L708.8,166.0 L720.0,172.9 L731.2,178.3 L742.5,181.4 L753.8,181.8 L765.0,179.6 L776.2,174.9 L787.5,168.4 L798.8,160.9 L810.0,153.2 L821.2,146.4 L832.5,141.2 L843.8,138.4 L855.0,138.3 L866.2,140.8 L877.5,145.7 L888.8,152.4 L900.0,160.0 L900,204 L0,204 Z;M0,160 L0.0,160.0 L11.2,167.6 L22.5,174.3 L33.8,179.2 L45.0,181.7 L56.2,181.6 L67.5,178.8 L78.8,173.6 L90.0,166.8 L101.2,159.1 L112.5,151.6 L123.8,145.1 L135.0,140.4 L146.2,138.2 L157.5,138.6 L168.8,141.7 L180.0,147.1 L191.2,154.0 L202.5,161.7 L213.8,169.2 L225.0,175.6 L236.2,180.0 L247.5,181.9 L258.8,181.2 L270.0,177.8 L281.2,172.2 L292.5,165.1 L303.8,157.4 L315.0,150.0 L326.2,143.8 L337.5,139.7 L348.8,138.0 L360.0,139.1 L371.2,142.7 L382.5,148.5 L393.8,155.7 L405.0,163.4 L416.2,170.7 L427.5,176.7 L438.8,180.6 L450.0,182.0 L461.2,180.6 L472.5,176.7 L483.8,170.7 L495.0,163.4 L506.2,155.7 L517.5,148.5 L528.8,142.7 L540.0,139.1 L551.2,138.0 L562.5,139.7 L573.8,143.8 L585.0,150.0 L596.2,157.4 L607.5,165.1 L618.8,172.2 L630.0,177.8 L641.2,181.2 L652.5,181.9 L663.8,180.0 L675.0,175.6 L686.2,169.2 L697.5,161.7 L708.8,154.0 L720.0,147.1 L731.2,141.7 L742.5,138.6 L753.8,138.2 L765.0,140.4 L776.2,145.1 L787.5,151.6 L798.8,159.1 L810.0,166.8 L821.2,173.6 L832.5,178.8 L843.8,181.6 L855.0,181.7 L866.2,179.2 L877.5,174.3 L888.8,167.6 L900.0,160.0 L900,204 L0,204 Z"/>
  </path>
  <path id="wave1" d="M0,172 L0.0,172.0 L11.2,177.0 L22.5,181.6 L33.8,185.5 L45.0,188.3 L56.2,189.8 L67.5,189.9 L78.8,188.5 L90.0,185.9 L101.2,182.1 L112.5,177.6 L123.8,172.6 L135.0,167.5 L146.2,162.8 L157.5,158.9 L168.8,156.0 L180.0,154.3 L191.2,154.1 L202.5,155.3 L213.8,157.8 L225.0,161.4 L236.2,165.9 L247.5,170.9 L258.8,175.9 L270.0,180.7 L281.2,184.7 L292.5,187.8 L303.8,189.6 L315.0,190.0 L326.2,188.9 L337.5,186.6 L348.8,183.0 L360.0,178.6 L371.2,173.7 L382.5,168.6 L393.8,163.8 L405.0,159.7 L416.2,156.5 L427.5,154.6 L438.8,154.0 L450.0,154.9 L461.2,157.1 L472.5,160.5 L483.8,164.9 L495.0,169.7 L506.2,174.8 L517.5,179.7 L528.8,183.9 L540.0,187.2 L551.2,189.3 L562.5,190.0 L573.8,189.3 L585.0,187.2 L596.2,183.9 L607.5,179.7 L618.8,174.8 L630.0,169.7 L641.2,164.9 L652.5,160.5 L663.8,157.1 L675.0,154.9 L686.2,154.0 L697.5,154.6 L708.8,156.5 L720.0,159.7 L731.2,163.8 L742.5,168.6 L753.8,173.7 L765.0,178.6 L776.2,183.0 L787.5,186.6 L798.8,188.9 L810.0,190.0 L821.2,189.6 L832.5,187.8 L843.8,184.7 L855.0,180.7 L866.2,175.9 L877.5,170.9 L888.8,165.9 L900.0,161.4 L900,208 L0,208 Z" fill="#a333d8" opacity="0.25">
    <animate attributeName="d" dur="6s" repeatCount="indefinite"
      values="M0,172 L0.0,172.0 L11.2,177.0 L22.5,181.6 L33.8,185.5 L45.0,188.3 L56.2,189.8 L67.5,189.9 L78.8,188.5 L90.0,185.9 L101.2,182.1 L112.5,177.6 L123.8,172.6 L135.0,167.5 L146.2,162.8 L157.5,158.9 L168.8,156.0 L180.0,154.3 L191.2,154.1 L202.5,155.3 L213.8,157.8 L225.0,161.4 L236.2,165.9 L247.5,170.9 L258.8,175.9 L270.0,180.7 L281.2,184.7 L292.5,187.8 L303.8,189.6 L315.0,190.0 L326.2,188.9 L337.5,186.6 L348.8,183.0 L360.0,178.6 L371.2,173.7 L382.5,168.6 L393.8,163.8 L405.0,159.7 L416.2,156.5 L427.5,154.6 L438.8,154.0 L450.0,154.9 L461.2,157.1 L472.5,160.5 L483.8,164.9 L495.0,169.7 L506.2,174.8 L517.5,179.7 L528.8,183.9 L540.0,187.2 L551.2,189.3 L562.5,190.0 L573.8,189.3 L585.0,187.2 L596.2,183.9 L607.5,179.7 L618.8,174.8 L630.0,169.7 L641.2,164.9 L652.5,160.5 L663.8,157.1 L675.0,154.9 L686.2,154.0 L697.5,154.6 L708.8,156.5 L720.0,159.7 L731.2,163.8 L742.5,168.6 L753.8,173.7 L765.0,178.6 L776.2,183.0 L787.5,186.6 L798.8,188.9 L810.0,190.0 L821.2,189.6 L832.5,187.8 L843.8,184.7 L855.0,180.7 L866.2,175.9 L877.5,170.9 L888.8,165.9 L900.0,161.4 L900,208 L0,208 Z;M0,172 L0.0,172.0 L11.2,167.0 L22.5,162.4 L33.8,158.5 L45.0,155.7 L56.2,154.2 L67.5,154.1 L78.8,155.5 L90.0,158.1 L101.2,161.9 L112.5,166.4 L123.8,171.4 L135.0,176.5 L146.2,181.2 L157.5,185.1 L168.8,188.0 L180.0,189.7 L191.2,189.9 L202.5,188.7 L213.8,186.2 L225.0,182.6 L236.2,178.1 L247.5,173.1 L258.8,168.1 L270.0,163.3 L281.2,159.3 L292.5,156.2 L303.8,154.4 L315.0,154.0 L326.2,155.1 L337.5,157.4 L348.8,161.0 L360.0,165.4 L371.2,170.3 L382.5,175.4 L393.8,180.2 L405.0,184.3 L416.2,187.5 L427.5,189.4 L438.8,190.0 L450.0,189.1 L461.2,186.9 L472.5,183.5 L483.8,179.1 L495.0,174.3 L506.2,169.2 L517.5,164.3 L528.8,160.1 L540.0,156.8 L551.2,154.7 L562.5,154.0 L573.8,154.7 L585.0,156.8 L596.2,160.1 L607.5,164.3 L618.8,169.2 L630.0,174.3 L641.2,179.1 L652.5,183.5 L663.8,186.9 L675.0,189.1 L686.2,190.0 L697.5,189.4 L708.8,187.5 L720.0,184.3 L731.2,180.2 L742.5,175.4 L753.8,170.3 L765.0,165.4 L776.2,161.0 L787.5,157.4 L798.8,155.1 L810.0,154.0 L821.2,154.4 L832.5,156.2 L843.8,159.3 L855.0,163.3 L866.2,168.1 L877.5,173.1 L888.8,178.1 L900.0,182.6 L900,208 L0,208 Z;M0,172 L0.0,172.0 L11.2,177.0 L22.5,181.6 L33.8,185.5 L45.0,188.3 L56.2,189.8 L67.5,189.9 L78.8,188.5 L90.0,185.9 L101.2,182.1 L112.5,177.6 L123.8,172.6 L135.0,167.5 L146.2,162.8 L157.5,158.9 L168.8,156.0 L180.0,154.3 L191.2,154.1 L202.5,155.3 L213.8,157.8 L225.0,161.4 L236.2,165.9 L247.5,170.9 L258.8,175.9 L270.0,180.7 L281.2,184.7 L292.5,187.8 L303.8,189.6 L315.0,190.0 L326.2,188.9 L337.5,186.6 L348.8,183.0 L360.0,178.6 L371.2,173.7 L382.5,168.6 L393.8,163.8 L405.0,159.7 L416.2,156.5 L427.5,154.6 L438.8,154.0 L450.0,154.9 L461.2,157.1 L472.5,160.5 L483.8,164.9 L495.0,169.7 L506.2,174.8 L517.5,179.7 L528.8,183.9 L540.0,187.2 L551.2,189.3 L562.5,190.0 L573.8,189.3 L585.0,187.2 L596.2,183.9 L607.5,179.7 L618.8,174.8 L630.0,169.7 L641.2,164.9 L652.5,160.5 L663.8,157.1 L675.0,154.9 L686.2,154.0 L697.5,154.6 L708.8,156.5 L720.0,159.7 L731.2,163.8 L742.5,168.6 L753.8,173.7 L765.0,178.6 L776.2,183.0 L787.5,186.6 L798.8,188.9 L810.0,190.0 L821.2,189.6 L832.5,187.8 L843.8,184.7 L855.0,180.7 L866.2,175.9 L877.5,170.9 L888.8,165.9 L900.0,161.4 L900,208 L0,208 Z"/>
  </path>
  <path id="wave2" d="M0,184 L0.0,184.0 L11.2,187.3 L22.5,190.4 L33.8,193.1 L45.0,195.3 L56.2,196.9 L67.5,197.8 L78.8,198.0 L90.0,197.3 L101.2,195.9 L112.5,193.9 L123.8,191.3 L135.0,188.3 L146.2,185.1 L157.5,181.8 L168.8,178.6 L180.0,175.8 L191.2,173.4 L202.5,171.5 L213.8,170.4 L225.0,170.0 L236.2,170.4 L247.5,171.5 L258.8,173.4 L270.0,175.8 L281.2,178.6 L292.5,181.8 L303.8,185.1 L315.0,188.3 L326.2,191.3 L337.5,193.9 L348.8,195.9 L360.0,197.3 L371.2,198.0 L382.5,197.8 L393.8,196.9 L405.0,195.3 L416.2,193.1 L427.5,190.4 L438.8,187.3 L450.0,184.0 L461.2,180.7 L472.5,177.6 L483.8,174.9 L495.0,172.7 L506.2,171.1 L517.5,170.2 L528.8,170.0 L540.0,170.7 L551.2,172.1 L562.5,174.1 L573.8,176.7 L585.0,179.7 L596.2,182.9 L607.5,186.2 L618.8,189.4 L630.0,192.2 L641.2,194.6 L652.5,196.5 L663.8,197.6 L675.0,198.0 L686.2,197.6 L697.5,196.5 L708.8,194.6 L720.0,192.2 L731.2,189.4 L742.5,186.2 L753.8,182.9 L765.0,179.7 L776.2,176.7 L787.5,174.1 L798.8,172.1 L810.0,170.7 L821.2,170.0 L832.5,170.2 L843.8,171.1 L855.0,172.7 L866.2,174.9 L877.5,177.6 L888.8,180.7 L900.0,184.0 L900,212 L0,212 Z" fill="#00d4ff" opacity="0.35">
    <animate attributeName="d" dur="4s" repeatCount="indefinite"
      values="M0,184 L0.0,184.0 L11.2,187.3 L22.5,190.4 L33.8,193.1 L45.0,195.3 L56.2,196.9 L67.5,197.8 L78.8,198.0 L90.0,197.3 L101.2,195.9 L112.5,193.9 L123.8,191.3 L135.0,188.3 L146.2,185.1 L157.5,181.8 L168.8,178.6 L180.0,175.8 L191.2,173.4 L202.5,171.5 L213.8,170.4 L225.0,170.0 L236.2,170.4 L247.5,171.5 L258.8,173.4 L270.0,175.8 L281.2,178.6 L292.5,181.8 L303.8,185.1 L315.0,188.3 L326.2,191.3 L337.5,193.9 L348.8,195.9 L360.0,197.3 L371.2,198.0 L382.5,197.8 L393.8,196.9 L405.0,195.3 L416.2,193.1 L427.5,190.4 L438.8,187.3 L450.0,184.0 L461.2,180.7 L472.5,177.6 L483.8,174.9 L495.0,172.7 L506.2,171.1 L517.5,170.2 L528.8,170.0 L540.0,170.7 L551.2,172.1 L562.5,174.1 L573.8,176.7 L585.0,179.7 L596.2,182.9 L607.5,186.2 L618.8,189.4 L630.0,192.2 L641.2,194.6 L652.5,196.5 L663.8,197.6 L675.0,198.0 L686.2,197.6 L697.5,196.5 L708.8,194.6 L720.0,192.2 L731.2,189.4 L742.5,186.2 L753.8,182.9 L765.0,179.7 L776.2,176.7 L787.5,174.1 L798.8,172.1 L810.0,170.7 L821.2,170.0 L832.5,170.2 L843.8,171.1 L855.0,172.7 L866.2,174.9 L877.5,177.6 L888.8,180.7 L900.0,184.0 L900,212 L0,212 Z;M0,184 L0.0,184.0 L11.2,180.7 L22.5,177.6 L33.8,174.9 L45.0,172.7 L56.2,171.1 L67.5,170.2 L78.8,170.0 L90.0,170.7 L101.2,172.1 L112.5,174.1 L123.8,176.7 L135.0,179.7 L146.2,182.9 L157.5,186.2 L168.8,189.4 L180.0,192.2 L191.2,194.6 L202.5,196.5 L213.8,197.6 L225.0,198.0 L236.2,197.6 L247.5,196.5 L258.8,194.6 L270.0,192.2 L281.2,189.4 L292.5,186.2 L303.8,182.9 L315.0,179.7 L326.2,176.7 L337.5,174.1 L348.8,172.1 L360.0,170.7 L371.2,170.0 L382.5,170.2 L393.8,171.1 L405.0,172.7 L416.2,174.9 L427.5,177.6 L438.8,180.7 L450.0,184.0 L461.2,187.3 L472.5,190.4 L483.8,193.1 L495.0,195.3 L506.2,196.9 L517.5,197.8 L528.8,198.0 L540.0,197.3 L551.2,195.9 L562.5,193.9 L573.8,191.3 L585.0,188.3 L596.2,185.1 L607.5,181.8 L618.8,178.6 L630.0,175.8 L641.2,173.4 L652.5,171.5 L663.8,170.4 L675.0,170.0 L686.2,170.4 L697.5,171.5 L708.8,173.4 L720.0,175.8 L731.2,178.6 L742.5,181.8 L753.8,185.1 L765.0,188.3 L776.2,191.3 L787.5,193.9 L798.8,195.9 L810.0,197.3 L821.2,198.0 L832.5,197.8 L843.8,196.9 L855.0,195.3 L866.2,193.1 L877.5,190.4 L888.8,187.3 L900.0,184.0 L900,212 L0,212 Z;M0,184 L0.0,184.0 L11.2,187.3 L22.5,190.4 L33.8,193.1 L45.0,195.3 L56.2,196.9 L67.5,197.8 L78.8,198.0 L90.0,197.3 L101.2,195.9 L112.5,193.9 L123.8,191.3 L135.0,188.3 L146.2,185.1 L157.5,181.8 L168.8,178.6 L180.0,175.8 L191.2,173.4 L202.5,171.5 L213.8,170.4 L225.0,170.0 L236.2,170.4 L247.5,171.5 L258.8,173.4 L270.0,175.8 L281.2,178.6 L292.5,181.8 L303.8,185.1 L315.0,188.3 L326.2,191.3 L337.5,193.9 L348.8,195.9 L360.0,197.3 L371.2,198.0 L382.5,197.8 L393.8,196.9 L405.0,195.3 L416.2,193.1 L427.5,190.4 L438.8,187.3 L450.0,184.0 L461.2,180.7 L472.5,177.6 L483.8,174.9 L495.0,172.7 L506.2,171.1 L517.5,170.2 L528.8,170.0 L540.0,170.7 L551.2,172.1 L562.5,174.1 L573.8,176.7 L585.0,179.7 L596.2,182.9 L607.5,186.2 L618.8,189.4 L630.0,192.2 L641.2,194.6 L652.5,196.5 L663.8,197.6 L675.0,198.0 L686.2,197.6 L697.5,196.5 L708.8,194.6 L720.0,192.2 L731.2,189.4 L742.5,186.2 L753.8,182.9 L765.0,179.7 L776.2,176.7 L787.5,174.1 L798.8,172.1 L810.0,170.7 L821.2,170.0 L832.5,170.2 L843.8,171.1 L855.0,172.7 L866.2,174.9 L877.5,177.6 L888.8,180.7 L900.0,184.0 L900,212 L0,212 Z"/>
  </path>
  <text x="450" y="85" font-size="72" font-weight="bold" font-family="Segoe UI, Helvetica, Arial, sans-serif" fill="#ffffff" text-anchor="middle" filter="url(#glowStrong)">ATS-Dopi</text>
  <text x="450" y="130" font-size="20" font-family="Segoe UI, Helvetica, Arial, sans-serif" fill="#00d4ff" text-anchor="middle" opacity="0">
    Cybersecurity Student • CTF Toolbox Builder
    <animate attributeName="opacity" from="0" to="1" dur="2s" begin="0.5s" fill="freeze"/>
  </text>
  <line x1="330" y1="150" x2="570" y2="150" stroke="#a333d8" stroke-width="2" opacity="0">
    <animate attributeName="opacity" from="0" to="0.6" dur="1.5s" begin="1s" fill="freeze"/>
    <animate attributeName="x1" from="450" to="330" dur="1.5s" begin="1s" fill="freeze"/>
    <animate attributeName="x2" from="450" to="570" dur="1.5s" begin="1s" fill="freeze"/>
  </line>
</svg>
