<svg xmlns="http://www.w3.org/2000/svg" width="56" height="56" viewBox="0 0 56 56" fill="none">
<defs>
  <linearGradient id="gradHeader" x1="0%" y1="0%" x2="100%" y2="0%">
    <stop offset="0%" stop-color="#7287fd"/>
    <stop offset="50%" stop-color="#a333d8"/>
    <stop offset="100%" stop-color="#00d4ff"/>
  </linearGradient>
  <linearGradient id="gradFooter" x1="0%" y1="0%" x2="100%" y2="0%">
    <stop offset="0%" stop-color="#00d4ff"/>
    <stop offset="50%" stop-color="#a333d8"/>
    <stop offset="100%" stop-color="#7287fd"/>
  </linearGradient>
  <linearGradient id="gradPurple" x1="0%" y1="0%" x2="100%" y2="100%">
    <stop offset="0%" stop-color="#a333d8" stop-opacity="0.8"/>
    <stop offset="100%" stop-color="#7287fd" stop-opacity="0.4"/>
  </linearGradient>
  <linearGradient id="gradCyan" x1="0%" y1="0%" x2="100%" y2="100%">
    <stop offset="0%" stop-color="#00d4ff" stop-opacity="0.8"/>
    <stop offset="100%" stop-color="#a333d8" stop-opacity="0.4"/>
  </linearGradient>
  <filter id="glow" x="-50%" y="-50%" width="200%" height="200%">
    <feGaussianBlur stdDeviation="3" result="coloredBlur"/>
    <feMerge>
      <feMergeNode in="coloredBlur"/>
      <feMergeNode in="SourceGraphic"/>
    </feMerge>
  </filter>
  <filter id="glowStrong" x="-50%" y="-50%" width="200%" height="200%">
    <feGaussianBlur stdDeviation="6" result="coloredBlur"/>
    <feMerge>
      <feMergeNode in="coloredBlur"/>
      <feMergeNode in="SourceGraphic"/>
    </feMerge>
  </filter>

</defs>
  <rect width="56" height="56" rx="12" fill="#161b22" stroke="#ea4335" stroke-width="1.5"/>
  <g transform="translate(12, 8)">
    <svg width="32" height="32" viewBox="0 0 24 24"><path d="M24 5.457v13.909c0 .904-.732 1.636-1.636 1.636h-3.819V11.73L12 16.64l-6.545-4.91v9.273H1.636A1.636 1.636 0 0 1 0 19.366V5.457c0-2.023 2.309-3.178 3.927-1.964L5.455 4.64 12 9.548l6.545-4.91 1.528-1.145C21.69 2.28 24 3.434 24 5.457z" fill="#ea4335"/></svg>
  </g>
  <text x="28" y="50" font-size="8" font-family="Segoe UI, sans-serif" fill="#c9d1d9" text-anchor="middle">Email</text>
</svg>
